<svg id="passport-open" width="450" height="616" viewBox="0 0 450 616" fill="none" xmlns="http://www.w3.org/2000/svg">
<path d="M12 616C5.37257 616 0 610.627 0 604L0 12C0 5.37259 5.37258 0 12 0H438C444.627 0 450 5.37258 450 12L450 604C450 610.627 444.627 616 438 616H12Z" fill="#243771"/>
<path d="M9 309L9 21C9 14.3726 14.3726 9 21 9H429C435.627 9 441 14.3726 441 21V309H9Z" fill="#D4E3EC"/>
<g filter="url(#filter0_d_18_202)">
<path d="M441 307L441 595C441 601.627 435.627 607 429 607H21C14.3726 607 9 601.627 9 595L9 307L441 307Z" fill="#D4E3EC"/>
</g>
<rect x="9" y="311" width="8" height="432" transform="rotate(-90 9 311)" fill="#A5C7DD"/>
<path d="M32.8849 350V339.818H36.902C37.6742 339.818 38.3321 339.966 38.8757 340.261C39.4193 340.552 39.8336 340.958 40.1186 341.479C40.407 341.996 40.5511 342.592 40.5511 343.268C40.5511 343.945 40.4053 344.541 40.1136 345.058C39.822 345.575 39.3994 345.978 38.8459 346.266C38.2957 346.555 37.6295 346.699 36.8473 346.699H34.2869V344.974H36.4993C36.9136 344.974 37.255 344.902 37.5234 344.76C37.7952 344.614 37.9974 344.414 38.13 344.158C38.2659 343.9 38.3338 343.603 38.3338 343.268C38.3338 342.93 38.2659 342.635 38.13 342.384C37.9974 342.128 37.7952 341.931 37.5234 341.792C37.2517 341.649 36.907 341.578 36.4893 341.578H35.0376V350H32.8849ZM42.5286 350H40.2218L43.7367 339.818H46.5108L50.0208 350H47.714L45.1635 342.145H45.084L42.5286 350ZM42.3844 345.998H47.8333V347.678H42.3844V345.998ZM56.5373 342.746C56.4975 342.345 56.3268 342.034 56.0252 341.812C55.7236 341.59 55.3143 341.479 54.7972 341.479C54.4459 341.479 54.1493 341.528 53.9073 341.628C53.6654 341.724 53.4798 341.858 53.3505 342.031C53.2246 342.203 53.1616 342.398 53.1616 342.617C53.1549 342.799 53.1931 342.959 53.2759 343.094C53.3621 343.23 53.4798 343.348 53.6289 343.447C53.7781 343.544 53.9504 343.628 54.146 343.701C54.3415 343.771 54.5503 343.83 54.7724 343.88L55.6871 344.099C56.1313 344.198 56.5389 344.331 56.9102 344.496C57.2814 344.662 57.6029 344.866 57.8746 345.108C58.1464 345.35 58.3569 345.635 58.506 345.963C58.6585 346.291 58.7364 346.667 58.7397 347.092C58.7364 347.715 58.5773 348.255 58.2624 348.712C57.9509 349.166 57.5001 349.519 56.9102 349.771C56.3235 350.02 55.6159 350.144 54.7873 350.144C53.9653 350.144 53.2494 350.018 52.6396 349.766C52.033 349.514 51.5591 349.142 51.2177 348.648C50.8796 348.151 50.7023 347.536 50.6857 346.803H52.7688C52.792 347.145 52.8898 347.43 53.0621 347.658C53.2378 347.884 53.4715 348.054 53.7631 348.17C54.0581 348.283 54.3912 348.339 54.7624 348.339C55.127 348.339 55.4435 348.286 55.712 348.18C55.9838 348.074 56.1942 347.927 56.3434 347.738C56.4925 347.549 56.5671 347.332 56.5671 347.087C56.5671 346.858 56.4992 346.666 56.3633 346.51C56.2307 346.354 56.0352 346.222 55.7766 346.112C55.5214 346.003 55.2082 345.903 54.837 345.814L53.7283 345.536C52.8699 345.327 52.1921 345 51.695 344.556C51.1978 344.112 50.9509 343.514 50.9542 342.761C50.9509 342.145 51.1149 341.606 51.4464 341.146C51.7811 340.685 52.2402 340.325 52.8235 340.067C53.4068 339.808 54.0697 339.679 54.8121 339.679C55.5678 339.679 56.2274 339.808 56.7908 340.067C57.3576 340.325 57.7984 340.685 58.1133 341.146C58.4281 341.606 58.5906 342.14 58.6005 342.746H56.5373ZM65.7111 342.746C65.6713 342.345 65.5007 342.034 65.199 341.812C64.8974 341.59 64.4881 341.479 63.9711 341.479C63.6197 341.479 63.3231 341.528 63.0811 341.628C62.8392 341.724 62.6536 341.858 62.5243 342.031C62.3984 342.203 62.3354 342.398 62.3354 342.617C62.3288 342.799 62.3669 342.959 62.4498 343.094C62.5359 343.23 62.6536 343.348 62.8027 343.447C62.9519 343.544 63.1242 343.628 63.3198 343.701C63.5153 343.771 63.7241 343.83 63.9462 343.88L64.861 344.099C65.3051 344.198 65.7128 344.331 66.084 344.496C66.4552 344.662 66.7767 344.866 67.0485 345.108C67.3203 345.35 67.5307 345.635 67.6799 345.963C67.8323 346.291 67.9102 346.667 67.9135 347.092C67.9102 347.715 67.7511 348.255 67.4363 348.712C67.1247 349.166 66.6739 349.519 66.084 349.771C65.4973 350.02 64.7897 350.144 63.9611 350.144C63.1391 350.144 62.4232 350.018 61.8134 349.766C61.2069 349.514 60.7329 349.142 60.3915 348.648C60.0534 348.151 59.8761 347.536 59.8596 346.803H61.9426C61.9658 347.145 62.0636 347.43 62.236 347.658C62.4116 347.884 62.6453 348.054 62.937 348.17C63.2319 348.283 63.565 348.339 63.9363 348.339C64.3008 348.339 64.6174 348.286 64.8858 348.18C65.1576 348.074 65.3681 347.927 65.5172 347.738C65.6664 347.549 65.7409 347.332 65.7409 347.087C65.7409 346.858 65.673 346.666 65.5371 346.51C65.4045 346.354 65.209 346.222 64.9505 346.112C64.6953 346.003 64.382 345.903 64.0108 345.814L62.9022 345.536C62.0437 345.327 61.3659 345 60.8688 344.556C60.3716 344.112 60.1247 343.514 60.128 342.761C60.1247 342.145 60.2888 341.606 60.6202 341.146C60.955 340.685 61.414 340.325 61.9973 340.067C62.5807 339.808 63.2435 339.679 63.986 339.679C64.7417 339.679 65.4012 339.808 65.9647 340.067C66.5314 340.325 66.9722 340.685 67.2871 341.146C67.602 341.606 67.7644 342.14 67.7743 342.746H65.7111ZM69.3615 350V339.818H73.3786C74.1508 339.818 74.8087 339.966 75.3523 340.261C75.8958 340.552 76.3101 340.958 76.5952 341.479C76.8835 341.996 77.0277 342.592 77.0277 343.268C77.0277 343.945 76.8819 344.541 76.5902 345.058C76.2985 345.575 75.8759 345.978 75.3224 346.266C74.7723 346.555 74.1061 346.699 73.3239 346.699H70.7635V344.974H72.9759C73.3902 344.974 73.7315 344.902 74 344.76C74.2718 344.614 74.474 344.414 74.6065 344.158C74.7424 343.9 74.8104 343.603 74.8104 343.268C74.8104 342.93 74.7424 342.635 74.6065 342.384C74.474 342.128 74.2718 341.931 74 341.792C73.7282 341.649 73.3835 341.578 72.9659 341.578H71.5142V350H69.3615ZM87.7825 344.909C87.7825 346.019 87.572 346.964 87.1511 347.743C86.7335 348.522 86.1634 349.117 85.4409 349.528C84.7217 349.935 83.9129 350.139 83.0147 350.139C82.1099 350.139 81.2979 349.934 80.5787 349.523C79.8594 349.112 79.291 348.517 78.8734 347.738C78.4558 346.959 78.247 346.016 78.247 344.909C78.247 343.799 78.4558 342.854 78.8734 342.075C79.291 341.296 79.8594 340.703 80.5787 340.295C81.2979 339.884 82.1099 339.679 83.0147 339.679C83.9129 339.679 84.7217 339.884 85.4409 340.295C86.1634 340.703 86.7335 341.296 87.1511 342.075C87.572 342.854 87.7825 343.799 87.7825 344.909ZM85.6 344.909C85.6 344.19 85.4922 343.583 85.2768 343.089C85.0647 342.596 84.7647 342.221 84.377 341.966C83.9892 341.711 83.5351 341.583 83.0147 341.583C82.4944 341.583 82.0403 341.711 81.6525 341.966C81.2647 342.221 80.9631 342.596 80.7477 343.089C80.5356 343.583 80.4295 344.19 80.4295 344.909C80.4295 345.628 80.5356 346.235 80.7477 346.729C80.9631 347.223 81.2647 347.597 81.6525 347.852C82.0403 348.107 82.4944 348.235 83.0147 348.235C83.5351 348.235 83.9892 348.107 84.377 347.852C84.7647 347.597 85.0647 347.223 85.2768 346.729C85.4922 346.235 85.6 345.628 85.6 344.909ZM89.3771 350V339.818H93.3942C94.1631 339.818 94.8194 339.956 95.3629 340.231C95.9098 340.503 96.3258 340.889 96.6108 341.389C96.8991 341.886 97.0433 342.471 97.0433 343.144C97.0433 343.82 96.8975 344.402 96.6058 344.889C96.3142 345.373 95.8916 345.744 95.3381 346.003C94.7879 346.261 94.1217 346.391 93.3395 346.391H90.6499V344.661H92.9915C93.4025 344.661 93.7438 344.604 94.0156 344.491C94.2874 344.379 94.4896 344.21 94.6222 343.984C94.758 343.759 94.826 343.479 94.826 343.144C94.826 342.806 94.758 342.521 94.6222 342.289C94.4896 342.057 94.2857 341.881 94.0107 341.762C93.7389 341.639 93.3958 341.578 92.9815 341.578H91.5298V350H89.3771ZM94.8757 345.366L97.4062 350H95.0298L92.554 345.366H94.8757ZM98.1768 341.593V339.818H106.539V341.593H103.422V350H101.294V341.593H98.1768Z" fill="#243771"/>
<defs>
<filter id="filter0_d_18_202" x="5" y="307" width="440" height="308" filterUnits="userSpaceOnUse" color-interpolation-filters="sRGB">
<feFlood flood-opacity="0" result="BackgroundImageFix"/>
<feColorMatrix in="SourceAlpha" type="matrix" values="0 0 0 0 0 0 0 0 0 0 0 0 0 0 0 0 0 0 127 0" result="hardAlpha"/>
<feOffset dy="4"/>
<feGaussianBlur stdDeviation="2"/>
<feComposite in2="hardAlpha" operator="out"/>
<feColorMatrix type="matrix" values="0 0 0 0 0 0 0 0 0 0 0 0 0 0 0 0 0 0 0.25 0"/>
<feBlend mode="normal" in2="BackgroundImageFix" result="effect1_dropShadow_18_202"/>
<feBlend mode="normal" in="SourceGraphic" in2="effect1_dropShadow_18_202" result="shape"/>
</filter>
</defs>
</svg>
