<svg id="passport" width="320" height="450" viewBox="0 0 320 450" fill="none" xmlns="http://www.w3.org/2000/svg">
<path d="M0 0H308C314.627 0 320 5.37258 320 12V438C320 444.627 314.627 450 308 450H0V0Z" fill="#243771" stroke="none"/>
<rect width="22" height="450" fill="#192E67" stroke="none"/>
<path d="M246 124.667C269.012 124.667 287.667 106.012 287.667 83C287.667 59.9881 269.012 41.3333 246 41.3333C222.988 41.3333 204.333 59.9881 204.333 83C204.333 106.012 222.988 124.667 246 124.667Z" stroke="current" stroke-width="8" stroke-linecap="round" stroke-linejoin="round" fill="none"/>
<path d="M229.333 45.5H233.5C225.375 69.8333 225.375 96.1667 233.5 120.5H229.333" stroke="current" stroke-width="8" stroke-linecap="round" stroke-linejoin="round" fill="none"/>
<path d="M258.5 45.5C266.625 69.8333 266.625 96.1667 258.5 120.5" stroke="current" stroke-width="8" stroke-linecap="round" stroke-linejoin="round" fill="none"/>
<path d="M208.5 99.6667V95.5C232.833 103.625 259.167 103.625 283.5 95.5V99.6667" stroke="current" stroke-width="8" stroke-linecap="round" stroke-linejoin="round" fill="none"/>
<path d="M208.5 70.5C232.833 62.375 259.167 62.375 283.5 70.5" stroke="current" stroke-width="8" stroke-linecap="round" stroke-linejoin="round" fill="none"/>
<path d="M219.004 209V198.818H222.822C223.605 198.818 224.261 198.964 224.791 199.256C225.325 199.547 225.728 199.948 225.999 200.459C226.274 200.966 226.412 201.543 226.412 202.189C226.412 202.842 226.274 203.422 225.999 203.929C225.724 204.436 225.318 204.835 224.781 205.127C224.244 205.415 223.583 205.56 222.798 205.56H220.267V204.043H222.549C223.006 204.043 223.381 203.964 223.673 203.805C223.964 203.646 224.18 203.427 224.319 203.148C224.461 202.87 224.533 202.55 224.533 202.189C224.533 201.828 224.461 201.509 224.319 201.234C224.18 200.959 223.963 200.746 223.668 200.593C223.376 200.437 223 200.359 222.539 200.359H220.849V209H219.004ZM228.187 209H226.218L229.803 198.818H232.08L235.669 209H233.7L230.981 200.906H230.901L228.187 209ZM228.251 205.008H233.621V206.489H228.251V205.008ZM242.379 201.617C242.333 201.183 242.137 200.845 241.793 200.603C241.451 200.361 241.007 200.24 240.46 200.24C240.076 200.24 239.746 200.298 239.471 200.414C239.196 200.53 238.985 200.687 238.84 200.886C238.694 201.085 238.619 201.312 238.616 201.567C238.616 201.78 238.664 201.964 238.76 202.119C238.86 202.275 238.994 202.408 239.163 202.517C239.332 202.623 239.519 202.713 239.725 202.786C239.93 202.858 240.137 202.92 240.346 202.969L241.301 203.208C241.685 203.298 242.055 203.419 242.409 203.571C242.767 203.723 243.087 203.916 243.369 204.148C243.654 204.38 243.879 204.66 244.045 204.988C244.211 205.316 244.294 205.701 244.294 206.141C244.294 206.738 244.141 207.263 243.836 207.717C243.531 208.168 243.09 208.521 242.514 208.776C241.94 209.028 241.246 209.154 240.431 209.154C239.638 209.154 238.951 209.031 238.367 208.786C237.787 208.541 237.333 208.183 237.005 207.712C236.68 207.242 236.505 206.668 236.478 205.992H238.293C238.319 206.347 238.429 206.642 238.621 206.877C238.813 207.112 239.063 207.288 239.372 207.404C239.683 207.52 240.031 207.578 240.416 207.578C240.817 207.578 241.168 207.518 241.47 207.399C241.775 207.277 242.013 207.107 242.186 206.892C242.358 206.673 242.446 206.418 242.449 206.126C242.446 205.861 242.368 205.643 242.215 205.47C242.063 205.295 241.849 205.149 241.574 205.033C241.302 204.913 240.984 204.807 240.619 204.714L239.461 204.416C238.623 204.201 237.96 203.874 237.472 203.437C236.989 202.996 236.747 202.411 236.747 201.682C236.747 201.082 236.909 200.557 237.234 200.106C237.562 199.655 238.008 199.305 238.571 199.057C239.135 198.805 239.773 198.679 240.485 198.679C241.208 198.679 241.841 198.805 242.384 199.057C242.931 199.305 243.36 199.652 243.672 200.096C243.984 200.537 244.144 201.044 244.154 201.617H242.379ZM251.471 201.617C251.425 201.183 251.229 200.845 250.885 200.603C250.543 200.361 250.099 200.24 249.552 200.24C249.168 200.24 248.838 200.298 248.563 200.414C248.288 200.53 248.077 200.687 247.931 200.886C247.786 201.085 247.711 201.312 247.708 201.567C247.708 201.78 247.756 201.964 247.852 202.119C247.951 202.275 248.086 202.408 248.255 202.517C248.424 202.623 248.611 202.713 248.816 202.786C249.022 202.858 249.229 202.92 249.438 202.969L250.392 203.208C250.777 203.298 251.146 203.419 251.501 203.571C251.859 203.723 252.179 203.916 252.461 204.148C252.746 204.38 252.971 204.66 253.137 204.988C253.302 205.316 253.385 205.701 253.385 206.141C253.385 206.738 253.233 207.263 252.928 207.717C252.623 208.168 252.182 208.521 251.605 208.776C251.032 209.028 250.338 209.154 249.522 209.154C248.73 209.154 248.042 209.031 247.459 208.786C246.879 208.541 246.425 208.183 246.097 207.712C245.772 207.242 245.596 206.668 245.57 205.992H247.385C247.411 206.347 247.52 206.642 247.713 206.877C247.905 207.112 248.155 207.288 248.463 207.404C248.775 207.52 249.123 207.578 249.507 207.578C249.908 207.578 250.26 207.518 250.561 207.399C250.866 207.277 251.105 207.107 251.277 206.892C251.45 206.673 251.538 206.418 251.541 206.126C251.538 205.861 251.46 205.643 251.307 205.47C251.155 205.295 250.941 205.149 250.666 205.033C250.394 204.913 250.076 204.807 249.711 204.714L248.553 204.416C247.714 204.201 247.051 203.874 246.564 203.437C246.08 202.996 245.838 202.411 245.838 201.682C245.838 201.082 246.001 200.557 246.326 200.106C246.654 199.655 247.1 199.305 247.663 199.057C248.226 198.805 248.864 198.679 249.577 198.679C250.3 198.679 250.933 198.805 251.476 199.057C252.023 199.305 252.452 199.652 252.764 200.096C253.075 200.537 253.236 201.044 253.246 201.617H251.471ZM255.03 209V198.818H258.848C259.63 198.818 260.286 198.964 260.817 199.256C261.35 199.547 261.753 199.948 262.025 200.459C262.3 200.966 262.437 201.543 262.437 202.189C262.437 202.842 262.3 203.422 262.025 203.929C261.75 204.436 261.344 204.835 260.807 205.127C260.27 205.415 259.608 205.56 258.823 205.56H256.292V204.043H258.574C259.032 204.043 259.406 203.964 259.698 203.805C259.99 203.646 260.205 203.427 260.344 203.148C260.487 202.87 260.558 202.55 260.558 202.189C260.558 201.828 260.487 201.509 260.344 201.234C260.205 200.959 259.988 200.746 259.693 200.593C259.401 200.437 259.025 200.359 258.564 200.359H256.874V209H255.03ZM273.137 203.909C273.137 205.006 272.932 205.946 272.521 206.728C272.113 207.507 271.556 208.103 270.85 208.518C270.148 208.932 269.351 209.139 268.459 209.139C267.568 209.139 266.769 208.932 266.063 208.518C265.36 208.1 264.803 207.502 264.392 206.723C263.985 205.941 263.781 205.003 263.781 203.909C263.781 202.812 263.985 201.874 264.392 201.095C264.803 200.313 265.36 199.715 266.063 199.3C266.769 198.886 267.568 198.679 268.459 198.679C269.351 198.679 270.148 198.886 270.85 199.3C271.556 199.715 272.113 200.313 272.521 201.095C272.932 201.874 273.137 202.812 273.137 203.909ZM271.283 203.909C271.283 203.137 271.162 202.486 270.92 201.955C270.681 201.422 270.35 201.019 269.926 200.747C269.502 200.472 269.013 200.335 268.459 200.335C267.906 200.335 267.417 200.472 266.993 200.747C266.568 201.019 266.235 201.422 265.993 201.955C265.755 202.486 265.635 203.137 265.635 203.909C265.635 204.681 265.755 205.334 265.993 205.868C266.235 206.398 266.568 206.801 266.993 207.076C267.417 207.348 267.906 207.484 268.459 207.484C269.013 207.484 269.502 207.348 269.926 207.076C270.35 206.801 270.681 206.398 270.92 205.868C271.162 205.334 271.283 204.681 271.283 203.909ZM274.881 209V198.818H278.699C279.482 198.818 280.138 198.954 280.668 199.226C281.202 199.498 281.604 199.879 281.876 200.369C282.151 200.857 282.289 201.425 282.289 202.075C282.289 202.728 282.15 203.294 281.871 203.775C281.596 204.252 281.19 204.622 280.653 204.884C280.116 205.142 279.457 205.271 278.675 205.271H275.955V203.74H278.426C278.883 203.74 279.258 203.677 279.55 203.551C279.841 203.422 280.057 203.235 280.196 202.989C280.338 202.741 280.41 202.436 280.41 202.075C280.41 201.713 280.338 201.405 280.196 201.15C280.053 200.891 279.836 200.696 279.545 200.563C279.253 200.427 278.877 200.359 278.416 200.359H276.726V209H274.881ZM280.141 204.386L282.662 209H280.604L278.128 204.386H280.141ZM283.539 200.364V198.818H291.663V200.364H288.516V209H286.686V200.364H283.539Z" fill="current"/>
<path d="M181.598 167.586V187.958H184.37V167.586H181.598ZM178.87 175.418V177.772H182.258V175.418H178.87ZM177.044 167.938V186.99H179.75V167.938H177.044ZM167.452 180.962V183.36H168.882C171.5 183.36 173.656 183.294 176.12 182.81L175.9 180.434C173.48 180.874 171.39 180.962 168.882 180.962H167.452ZM167.452 169.94V182.106H170.356V172.294H174.976V169.94H167.452ZM200.23 167.608V182.832H203.156V167.608H200.23ZM202.32 173.812V176.21H205.862V173.812H202.32ZM187.118 169.72V172.008H199.108V169.72H187.118ZM193.124 172.734C190.176 172.734 188.108 174.34 188.108 176.672C188.108 179.004 190.176 180.588 193.124 180.588C196.05 180.588 198.118 179.004 198.118 176.672C198.118 174.34 196.05 172.734 193.124 172.734ZM193.124 174.956C194.422 174.956 195.324 175.572 195.324 176.672C195.324 177.772 194.422 178.366 193.124 178.366C191.826 178.366 190.924 177.772 190.924 176.672C190.924 175.572 191.826 174.956 193.124 174.956ZM191.65 167.564V170.842H194.576V167.564H191.65ZM190.022 185.274V187.606H203.882V185.274H190.022ZM190.022 181.688V186.286H192.948V181.688H190.022ZM208.391 169.192V179.048H218.269V169.192H208.391ZM215.409 171.502V176.738H211.251V171.502H215.409ZM221.349 167.608V182.084H224.297V167.608H221.349ZM210.723 185.186V187.54H224.803V185.186H210.723ZM210.723 180.764V186.22H213.649V180.764H210.723ZM229.861 168.444V170.776H242.775V168.444H229.861ZM227.617 175.484V177.816H246.053V175.484H227.617ZM235.339 177.134V181.402H238.265V177.134H235.339ZM241.015 168.444V170.072C241.015 171.788 241.015 173.658 240.377 176.276L243.259 176.562C243.897 173.878 243.897 171.832 243.897 170.072V168.444H241.015ZM229.465 180.676V182.986H240.993V187.958H243.919V180.676H229.465ZM262.398 171.744V174.098H267.942V171.744H262.398ZM262.398 178.058V180.412H267.942V178.058H262.398ZM258.878 168.994C255.82 168.994 253.62 171.81 253.62 176.254C253.62 180.742 255.82 183.558 258.878 183.558C261.914 183.558 264.136 180.742 264.136 176.254C264.136 171.81 261.914 168.994 258.878 168.994ZM258.878 171.656C260.374 171.656 261.364 173.262 261.364 176.254C261.364 179.29 260.374 180.918 258.878 180.918C257.404 180.918 256.392 179.29 256.392 176.254C256.392 173.262 257.404 171.656 258.878 171.656ZM267.48 167.564V188.002H270.384V167.564H267.48ZM278.742 177.09V181.666H281.646V177.09H278.742ZM287.894 167.586V182.92H290.842V167.586H287.894ZM276.168 185.274V187.606H291.282V185.274H276.168ZM276.168 181.402V185.846H279.094V181.402H276.168ZM273.748 177.596C277.422 177.574 282.262 177.464 286.684 176.672L286.486 174.604C282.152 175.198 277.114 175.264 273.396 175.286L273.748 177.596ZM283.978 178.454V180.72H288.554V178.454H283.978ZM275.244 168.598V170.908H283.89V168.598H275.244ZM282.042 168.598V169.302C282.042 170.446 282.042 172.514 281.558 175.528L284.418 175.726C284.946 172.69 284.946 170.49 284.946 169.302V168.598H282.042Z" fill="current"/>
<path fill-rule="evenodd" clip-rule="evenodd" d="M272.083 413H260V423H296V413H283.917C283.441 415.838 280.973 418 278 418C275.027 418 272.559 415.838 272.083 413Z" fill="current"/>
<path fill-rule="evenodd" clip-rule="evenodd" d="M272.083 411H260V401H296V411H283.917C283.441 408.162 280.973 406 278 406C275.027 406 272.559 408.162 272.083 411Z" fill="current"/>
<circle cx="278" cy="412" r="4" fill="current"/>
</svg>
