<svg id="passport" width="328" height="458" viewBox="0 0 328 458" fill="none" xmlns="http://www.w3.org/2000/svg">
<g filter="url(#filter0_d_18_195)">
<path d="M4 0H312C318.627 0 324 5.37258 324 12V438C324 444.627 318.627 450 312 450H4V0Z" fill="#243771" stroke="none"/>
</g>
<rect x="4" width="22" height="450" fill="#192E67" stroke="none"/>
<path d="M250 124.667C273.012 124.667 291.667 106.012 291.667 83C291.667 59.9881 273.012 41.3333 250 41.3333C226.988 41.3333 208.333 59.9881 208.333 83C208.333 106.012 226.988 124.667 250 124.667Z" stroke="current" stroke-width="8" stroke-linecap="round" stroke-linejoin="round" fill="none"/>
<path d="M233.333 45.5H237.5C229.375 69.8333 229.375 96.1667 237.5 120.5H233.333" stroke="current" stroke-width="8" stroke-linecap="round" stroke-linejoin="round" fill="none"/>
<path d="M262.5 45.5C270.625 69.8333 270.625 96.1667 262.5 120.5" stroke="current" stroke-width="8" stroke-linecap="round" stroke-linejoin="round" fill="none"/>
<path d="M212.5 99.6667V95.5C236.833 103.625 263.167 103.625 287.5 95.5V99.6667" stroke="current" stroke-width="8" stroke-linecap="round" stroke-linejoin="round" fill="none"/>
<path d="M212.5 70.5C236.833 62.375 263.167 62.375 287.5 70.5" stroke="current" stroke-width="8" stroke-linecap="round" stroke-linejoin="round" fill="none"/>
<path d="M223.004 209V198.818H226.822C227.605 198.818 228.261 198.964 228.791 199.256C229.325 199.547 229.728 199.948 229.999 200.459C230.274 200.966 230.412 201.543 230.412 202.189C230.412 202.842 230.274 203.422 229.999 203.929C229.724 204.436 229.318 204.835 228.781 205.127C228.244 205.415 227.583 205.56 226.798 205.56H224.267V204.043H226.549C227.006 204.043 227.381 203.964 227.673 203.805C227.964 203.646 228.18 203.427 228.319 203.148C228.461 202.87 228.533 202.55 228.533 202.189C228.533 201.828 228.461 201.509 228.319 201.234C228.18 200.959 227.963 200.746 227.668 200.593C227.376 200.437 227 200.359 226.539 200.359H224.849V209H223.004ZM232.187 209H230.218L233.803 198.818H236.08L239.669 209H237.7L234.981 200.906H234.901L232.187 209ZM232.251 205.008H237.621V206.489H232.251V205.008ZM246.379 201.617C246.333 201.183 246.137 200.845 245.793 200.603C245.451 200.361 245.007 200.24 244.46 200.24C244.076 200.24 243.746 200.298 243.471 200.414C243.196 200.53 242.985 200.687 242.84 200.886C242.694 201.085 242.619 201.312 242.616 201.567C242.616 201.78 242.664 201.964 242.76 202.119C242.86 202.275 242.994 202.408 243.163 202.517C243.332 202.623 243.519 202.713 243.725 202.786C243.93 202.858 244.137 202.92 244.346 202.969L245.301 203.208C245.685 203.298 246.055 203.419 246.409 203.571C246.767 203.723 247.087 203.916 247.369 204.148C247.654 204.38 247.879 204.66 248.045 204.988C248.211 205.316 248.294 205.701 248.294 206.141C248.294 206.738 248.141 207.263 247.836 207.717C247.531 208.168 247.09 208.521 246.514 208.776C245.94 209.028 245.246 209.154 244.431 209.154C243.638 209.154 242.951 209.031 242.367 208.786C241.787 208.541 241.333 208.183 241.005 207.712C240.68 207.242 240.505 206.668 240.478 205.992H242.293C242.319 206.347 242.429 206.642 242.621 206.877C242.813 207.112 243.063 207.288 243.372 207.404C243.683 207.52 244.031 207.578 244.416 207.578C244.817 207.578 245.168 207.518 245.47 207.399C245.775 207.277 246.013 207.107 246.186 206.892C246.358 206.673 246.446 206.418 246.449 206.126C246.446 205.861 246.368 205.643 246.215 205.47C246.063 205.295 245.849 205.149 245.574 205.033C245.302 204.913 244.984 204.807 244.619 204.714L243.461 204.416C242.623 204.201 241.96 203.874 241.472 203.437C240.989 202.996 240.747 202.411 240.747 201.682C240.747 201.082 240.909 200.557 241.234 200.106C241.562 199.655 242.008 199.305 242.571 199.057C243.135 198.805 243.773 198.679 244.485 198.679C245.208 198.679 245.841 198.805 246.384 199.057C246.931 199.305 247.36 199.652 247.672 200.096C247.984 200.537 248.144 201.044 248.154 201.617H246.379ZM255.471 201.617C255.425 201.183 255.229 200.845 254.885 200.603C254.543 200.361 254.099 200.24 253.552 200.24C253.168 200.24 252.838 200.298 252.563 200.414C252.288 200.53 252.077 200.687 251.931 200.886C251.786 201.085 251.711 201.312 251.708 201.567C251.708 201.78 251.756 201.964 251.852 202.119C251.951 202.275 252.086 202.408 252.255 202.517C252.424 202.623 252.611 202.713 252.816 202.786C253.022 202.858 253.229 202.92 253.438 202.969L254.392 203.208C254.777 203.298 255.146 203.419 255.501 203.571C255.859 203.723 256.179 203.916 256.461 204.148C256.746 204.38 256.971 204.66 257.137 204.988C257.302 205.316 257.385 205.701 257.385 206.141C257.385 206.738 257.233 207.263 256.928 207.717C256.623 208.168 256.182 208.521 255.605 208.776C255.032 209.028 254.338 209.154 253.522 209.154C252.73 209.154 252.042 209.031 251.459 208.786C250.879 208.541 250.425 208.183 250.097 207.712C249.772 207.242 249.596 206.668 249.57 205.992H251.385C251.411 206.347 251.52 206.642 251.713 206.877C251.905 207.112 252.155 207.288 252.463 207.404C252.775 207.52 253.123 207.578 253.507 207.578C253.908 207.578 254.26 207.518 254.561 207.399C254.866 207.277 255.105 207.107 255.277 206.892C255.45 206.673 255.538 206.418 255.541 206.126C255.538 205.861 255.46 205.643 255.307 205.47C255.155 205.295 254.941 205.149 254.666 205.033C254.394 204.913 254.076 204.807 253.711 204.714L252.553 204.416C251.714 204.201 251.051 203.874 250.564 203.437C250.08 202.996 249.838 202.411 249.838 201.682C249.838 201.082 250.001 200.557 250.326 200.106C250.654 199.655 251.1 199.305 251.663 199.057C252.226 198.805 252.864 198.679 253.577 198.679C254.3 198.679 254.933 198.805 255.476 199.057C256.023 199.305 256.452 199.652 256.764 200.096C257.075 200.537 257.236 201.044 257.246 201.617H255.471ZM259.03 209V198.818H262.848C263.63 198.818 264.286 198.964 264.817 199.256C265.35 199.547 265.753 199.948 266.025 200.459C266.3 200.966 266.437 201.543 266.437 202.189C266.437 202.842 266.3 203.422 266.025 203.929C265.75 204.436 265.344 204.835 264.807 205.127C264.27 205.415 263.608 205.56 262.823 205.56H260.292V204.043H262.574C263.032 204.043 263.406 203.964 263.698 203.805C263.99 203.646 264.205 203.427 264.344 203.148C264.487 202.87 264.558 202.55 264.558 202.189C264.558 201.828 264.487 201.509 264.344 201.234C264.205 200.959 263.988 200.746 263.693 200.593C263.401 200.437 263.025 200.359 262.564 200.359H260.874V209H259.03ZM277.137 203.909C277.137 205.006 276.932 205.946 276.521 206.728C276.113 207.507 275.556 208.103 274.85 208.518C274.148 208.932 273.351 209.139 272.459 209.139C271.568 209.139 270.769 208.932 270.063 208.518C269.36 208.1 268.803 207.502 268.392 206.723C267.985 205.941 267.781 205.003 267.781 203.909C267.781 202.812 267.985 201.874 268.392 201.095C268.803 200.313 269.36 199.715 270.063 199.3C270.769 198.886 271.568 198.679 272.459 198.679C273.351 198.679 274.148 198.886 274.85 199.3C275.556 199.715 276.113 200.313 276.521 201.095C276.932 201.874 277.137 202.812 277.137 203.909ZM275.283 203.909C275.283 203.137 275.162 202.486 274.92 201.955C274.681 201.422 274.35 201.019 273.926 200.747C273.502 200.472 273.013 200.335 272.459 200.335C271.906 200.335 271.417 200.472 270.993 200.747C270.568 201.019 270.235 201.422 269.993 201.955C269.755 202.486 269.635 203.137 269.635 203.909C269.635 204.681 269.755 205.334 269.993 205.868C270.235 206.398 270.568 206.801 270.993 207.076C271.417 207.348 271.906 207.484 272.459 207.484C273.013 207.484 273.502 207.348 273.926 207.076C274.35 206.801 274.681 206.398 274.92 205.868C275.162 205.334 275.283 204.681 275.283 203.909ZM278.881 209V198.818H282.699C283.482 198.818 284.138 198.954 284.668 199.226C285.202 199.498 285.604 199.879 285.876 200.369C286.151 200.857 286.289 201.425 286.289 202.075C286.289 202.728 286.15 203.294 285.871 203.775C285.596 204.252 285.19 204.622 284.653 204.884C284.116 205.142 283.457 205.271 282.675 205.271H279.955V203.74H282.426C282.883 203.74 283.258 203.677 283.55 203.551C283.841 203.422 284.057 203.235 284.196 202.989C284.338 202.741 284.41 202.436 284.41 202.075C284.41 201.713 284.338 201.405 284.196 201.15C284.053 200.891 283.836 200.696 283.545 200.563C283.253 200.427 282.877 200.359 282.416 200.359H280.726V209H278.881ZM284.141 204.386L286.662 209H284.604L282.128 204.386H284.141ZM287.539 200.364V198.818H295.663V200.364H292.516V209H290.686V200.364H287.539Z" fill="#FFFFEA"/>
<path d="M193.102 173.988V176.32H207.27V173.988H193.102ZM193.102 168.51V175.044H196.028V168.51H193.102ZM190.902 178.564V180.918H209.316V178.564H190.902ZM195.082 179.4V187.958H198.008V179.4H195.082ZM202.188 179.4V187.958H205.114V179.4H202.188ZM225.088 167.564V188.002H228.036V167.564H225.088ZM217.058 168.994C213.978 168.994 211.712 171.81 211.712 176.254C211.712 180.742 213.978 183.558 217.058 183.558C220.138 183.558 222.404 180.742 222.404 176.254C222.404 171.81 220.138 168.994 217.058 168.994ZM217.058 171.656C218.576 171.656 219.588 173.262 219.588 176.254C219.588 179.29 218.576 180.918 217.058 180.918C215.54 180.918 214.506 179.29 214.506 176.254C214.506 173.262 215.54 171.656 217.058 171.656ZM236.945 168.994C233.887 168.994 231.687 171.81 231.687 176.254C231.687 180.742 233.887 183.558 236.945 183.558C239.981 183.558 242.203 180.742 242.203 176.254C242.203 171.81 239.981 168.994 236.945 168.994ZM236.945 171.656C238.441 171.656 239.409 173.262 239.409 176.254C239.409 179.29 238.441 180.918 236.945 180.918C235.471 180.918 234.481 179.29 234.481 176.254C234.481 173.262 235.471 171.656 236.945 171.656ZM245.547 167.564V188.002H248.451V167.564H245.547ZM241.345 174.912V177.266H246.779V174.912H241.345ZM266.16 171.744V174.098H271.704V171.744H266.16ZM266.16 178.058V180.412H271.704V178.058H266.16ZM262.64 168.994C259.582 168.994 257.382 171.81 257.382 176.254C257.382 180.742 259.582 183.558 262.64 183.558C265.676 183.558 267.898 180.742 267.898 176.254C267.898 171.81 265.676 168.994 262.64 168.994ZM262.64 171.656C264.136 171.656 265.126 173.262 265.126 176.254C265.126 179.29 264.136 180.918 262.64 180.918C261.166 180.918 260.154 179.29 260.154 176.254C260.154 173.262 261.166 171.656 262.64 171.656ZM271.242 167.564V188.002H274.146V167.564H271.242ZM282.504 177.09V181.666H285.408V177.09H282.504ZM291.656 167.586V182.92H294.604V167.586H291.656ZM279.93 185.274V187.606H295.044V185.274H279.93ZM279.93 181.402V185.846H282.856V181.402H279.93ZM277.51 177.596C281.184 177.574 286.024 177.464 290.446 176.672L290.248 174.604C285.914 175.198 280.876 175.264 277.158 175.286L277.51 177.596ZM287.74 178.454V180.72H292.316V178.454H287.74ZM279.006 168.598V170.908H287.652V168.598H279.006ZM285.804 168.598V169.302C285.804 170.446 285.804 172.514 285.32 175.528L288.18 175.726C288.708 172.69 288.708 170.49 288.708 169.302V168.598H285.804Z" fill="current"/>
<path fill-rule="evenodd" clip-rule="evenodd" d="M276.083 413H264V423H300V413H287.917C287.441 415.838 284.973 418 282 418C279.027 418 276.559 415.838 276.083 413Z" fill="current"/>
<path fill-rule="evenodd" clip-rule="evenodd" d="M276.083 411H264V401H300V411H287.917C287.441 408.162 284.973 406 282 406C279.027 406 276.559 408.162 276.083 411Z" fill="current"/>
<circle cx="282" cy="412" r="4" fill="current"/>
<defs>
<filter id="filter0_d_18_195" x="0" y="0" width="328" height="458" filterUnits="userSpaceOnUse" color-interpolation-filters="sRGB">
<feFlood flood-opacity="0" result="BackgroundImageFix"/>
<feColorMatrix in="SourceAlpha" type="matrix" values="0 0 0 0 0 0 0 0 0 0 0 0 0 0 0 0 0 0 127 0" result="hardAlpha"/>
<feOffset dy="4"/>
<feGaussianBlur stdDeviation="2"/>
<feComposite in2="hardAlpha" operator="out"/>
<feColorMatrix type="matrix" values="0 0 0 0 0 0 0 0 0 0 0 0 0 0 0 0 0 0 0.15 0"/>
<feBlend mode="normal" in2="BackgroundImageFix" result="effect1_dropShadow_18_195"/>
<feBlend mode="normal" in="SourceGraphic" in2="effect1_dropShadow_18_195" result="shape"/>
</filter>
</defs>
</svg>
